<svg width="602" height="640" viewBox="0 0 602 640" fill="none" xmlns="http://www.w3.org/2000/svg">
<g opacity="0.5">
<path d="M-487.506 385.695L-488 383.967L547.491 104.478L547.985 106.206L-487.506 385.695Z" fill="url(#paint0_linear)"/>
<path d="M-443.064 412.854L-443.558 411.125L544.775 144.228L545.269 145.957L-443.064 412.854Z" fill="url(#paint1_linear)"/>
<path d="M-398.129 439.766L-398.623 438.037L542.06 183.979L542.553 185.707L-398.129 439.766Z" fill="url(#paint2_linear)"/>
<path d="M-352.7 466.678L-353.194 464.949L538.85 223.977L539.344 225.705L-352.7 466.678Z" fill="url(#paint3_linear)"/>
<path d="M-308.011 493.589L-308.258 491.861L536.628 263.727L537.122 265.455L-308.011 493.589Z" fill="url(#paint4_linear)"/>
<path d="M-263.075 520.501L-263.569 518.773L533.912 303.478L534.406 305.206L-263.075 520.501Z" fill="url(#paint5_linear)"/>
<path d="M-218.14 547.413L-218.634 545.685L391.205 381.004L391.698 382.732L-218.14 547.413Z" fill="url(#paint6_linear)"/>
<path d="M-173.205 574.325L-173.698 572.597L467.003 399.768L467.496 401.496L-173.205 574.325Z" fill="url(#paint7_linear)"/>
<path d="M-128.269 601.237L-128.763 599.509L467.003 438.778L467.496 440.753L-128.269 601.237Z" fill="url(#paint8_linear)"/>
<path d="M-83.3337 628.643L-83.5806 626.668L467.003 478.282L467.496 480.01L-83.3337 628.643Z" fill="url(#paint9_linear)"/>
<path d="M-336.898 32.1365L-337.392 30.4082L288.001 -138.223L288.495 -136.495L-336.898 32.1365Z" fill="url(#paint10_linear)"/>
<path d="M-336.898 71.1465L-337.392 69.4183L331.949 -111.064L332.443 -109.336L-336.898 71.1465Z" fill="url(#paint11_linear)"/>
<path d="M-336.898 110.156L-337.392 108.428L376.638 -83.9057L377.132 -82.1774L-336.898 110.156Z" fill="url(#paint12_linear)"/>
<path d="M-336.898 149.413L-337.392 147.438L421.573 -56.9936L422.067 -55.2653L-336.898 149.413Z" fill="url(#paint13_linear)"/>
<path d="M-336.898 188.423L-337.392 186.448L466.509 -30.0819L467.003 -28.3536L-336.898 188.423Z" fill="url(#paint14_linear)"/>
<path d="M-336.898 227.433L-337.392 225.705L511.198 -3.17001L511.691 -1.19483L-336.898 227.433Z" fill="url(#paint15_linear)"/>
<path d="M-336.898 266.443L-337.392 264.715L556.133 23.9889L556.627 25.7172L-336.898 266.443Z" fill="url(#paint16_linear)"/>
<path d="M-319.368 301.256L-319.862 299.527L600.821 50.9009L601.315 52.6292L-319.368 301.256Z" fill="url(#paint17_linear)"/>
<path d="M434.165 530.377L-251.471 119.045L-250.484 117.316L435.153 528.896L434.165 530.377Z" fill="url(#paint18_linear)"/>
<path d="M384.539 544.697L-279.618 145.957L-278.63 144.475L385.526 543.216L384.539 544.697Z" fill="url(#paint19_linear)"/>
<path d="M334.418 558.277L-307.764 173.115L-306.777 171.387L335.159 556.795L334.418 558.277Z" fill="url(#paint20_linear)"/>
<path d="M283.804 571.856L-335.911 200.027L-334.923 198.546L284.792 570.375L283.804 571.856Z" fill="url(#paint21_linear)"/>
<path d="M232.943 585.436L-335.911 243.975L-335.17 242.494L233.93 583.954L232.943 585.436Z" fill="url(#paint22_linear)"/>
<path d="M182.576 599.262L-315.665 300.268L-314.677 298.54L183.563 597.533L182.576 599.262Z" fill="url(#paint23_linear)"/>
<path d="M132.208 612.841L-366.279 313.847L-365.292 312.366L133.196 611.36L132.208 612.841Z" fill="url(#paint24_linear)"/>
<path d="M81.5942 626.421L-416.646 327.427L-415.659 325.945L82.5818 624.939L81.5942 626.421Z" fill="url(#paint25_linear)"/>
<path d="M30.98 640L-467.261 341.253L-466.273 339.525L31.9677 638.519L30.98 640Z" fill="url(#paint26_linear)"/>
<path d="M552.676 249.654L-28.5222 -100.201L-27.5346 -101.929L553.664 247.926L552.676 249.654Z" fill="url(#paint27_linear)"/>
<path d="M552.923 293.602L-78.8896 -86.6216L-77.902 -88.103L553.911 292.12L552.923 293.602Z" fill="url(#paint28_linear)"/>
<path d="M549.22 335.574L-129.504 -73.0422L-128.516 -74.5236L550.207 334.093L549.22 335.574Z" fill="url(#paint29_linear)"/>
<path d="M498.111 348.907L-180.118 -59.4628L-179.13 -60.9442L499.099 347.179L498.111 348.907Z" fill="url(#paint30_linear)"/>
<path d="M447.991 362.733L-230.485 -45.8834L-229.498 -47.3648L448.979 361.005L447.991 362.733Z" fill="url(#paint31_linear)"/>
<path d="M569.465 83.9851L173.44 -154.519L174.428 -156L570.453 82.2568L569.465 83.9851Z" fill="url(#paint32_linear)"/>
<path d="M552.923 118.057L122.58 -140.939L123.567 -142.667L553.911 116.329L552.923 118.057Z" fill="url(#paint33_linear)"/>
<path d="M552.923 162.005L72.2122 -127.36L73.1998 -128.841L553.911 160.524L552.923 162.005Z" fill="url(#paint34_linear)"/>
<path d="M552.923 205.953L21.3512 -114.027L22.3388 -115.509L553.911 204.472L552.923 205.953Z" fill="url(#paint35_linear)"/>
<path d="M467.249 418.285L-281.346 -32.304L-280.359 -33.7853L468.237 416.804L467.249 418.285Z" fill="url(#paint36_linear)"/>
<path d="M467.249 462.233L-331.467 -18.4776L-330.726 -20.2059L468.237 460.752L467.249 462.233Z" fill="url(#paint37_linear)"/>
<path d="M467.249 506.181L-222.831 91.8859L-221.844 90.4045L468.237 504.7L467.249 506.181Z" fill="url(#paint38_linear)"/>
</g>
<defs>
<linearGradient id="paint0_linear" x1="-480.445" y1="273.308" x2="531.879" y2="342.36" gradientUnits="userSpaceOnUse">
<stop stop-color="#4D4D4D" stop-opacity="0"/>
<stop offset="0.5137" stop-color="#4D4D4D"/>
<stop offset="0.9303" stop-color="#4D4D4D" stop-opacity="0.1434"/>
<stop offset="1" stop-color="#4D4D4D" stop-opacity="0"/>
</linearGradient>
<linearGradient id="paint1_linear" x1="-436.324" y1="305.451" x2="529.9" y2="371.357" gradientUnits="userSpaceOnUse">
<stop stop-color="#4D4D4D" stop-opacity="0"/>
<stop offset="0.5137" stop-color="#4D4D4D"/>
<stop offset="0.9303" stop-color="#4D4D4D" stop-opacity="0.1434"/>
<stop offset="1" stop-color="#4D4D4D" stop-opacity="0"/>
</linearGradient>
<linearGradient id="paint2_linear" x1="-391.83" y1="337.531" x2="527.928" y2="400.269" gradientUnits="userSpaceOnUse">
<stop stop-color="#4D4D4D" stop-opacity="0"/>
<stop offset="0.5137" stop-color="#4D4D4D"/>
<stop offset="0.9303" stop-color="#4D4D4D" stop-opacity="0.1434"/>
<stop offset="1" stop-color="#4D4D4D" stop-opacity="0"/>
</linearGradient>
<linearGradient id="paint3_linear" x1="-346.781" y1="369.574" x2="525.487" y2="429.072" gradientUnits="userSpaceOnUse">
<stop stop-color="#4D4D4D" stop-opacity="0"/>
<stop offset="0.5137" stop-color="#4D4D4D"/>
<stop offset="0.9303" stop-color="#4D4D4D" stop-opacity="0.1434"/>
<stop offset="1" stop-color="#4D4D4D" stop-opacity="0"/>
</linearGradient>
<linearGradient id="paint4_linear" x1="-302.222" y1="401.594" x2="523.995" y2="457.951" gradientUnits="userSpaceOnUse">
<stop stop-color="#4D4D4D" stop-opacity="0"/>
<stop offset="0.5137" stop-color="#4D4D4D"/>
<stop offset="0.9303" stop-color="#4D4D4D" stop-opacity="0.1434"/>
<stop offset="1" stop-color="#4D4D4D" stop-opacity="0"/>
</linearGradient>
<linearGradient id="paint5_linear" x1="-257.684" y1="433.668" x2="522.023" y2="486.852" gradientUnits="userSpaceOnUse">
<stop stop-color="#4D4D4D" stop-opacity="0"/>
<stop offset="0.5137" stop-color="#4D4D4D"/>
<stop offset="0.9303" stop-color="#4D4D4D" stop-opacity="0.1434"/>
<stop offset="1" stop-color="#4D4D4D" stop-opacity="0"/>
</linearGradient>
<linearGradient id="paint6_linear" x1="-214.14" y1="480.834" x2="382.151" y2="521.507" gradientUnits="userSpaceOnUse">
<stop stop-color="#4D4D4D" stop-opacity="0"/>
<stop offset="0.5137" stop-color="#4D4D4D"/>
<stop offset="0.9303" stop-color="#4D4D4D" stop-opacity="0.1434"/>
<stop offset="1" stop-color="#4D4D4D" stop-opacity="0"/>
</linearGradient>
<linearGradient id="paint7_linear" x1="-168.972" y1="504.532" x2="457.505" y2="547.264" gradientUnits="userSpaceOnUse">
<stop stop-color="#4D4D4D" stop-opacity="0"/>
<stop offset="0.5137" stop-color="#4D4D4D"/>
<stop offset="0.9303" stop-color="#4D4D4D" stop-opacity="0.1434"/>
<stop offset="1" stop-color="#4D4D4D" stop-opacity="0"/>
</linearGradient>
<linearGradient id="paint8_linear" x1="-124.386" y1="536.313" x2="458.206" y2="576.052" gradientUnits="userSpaceOnUse">
<stop stop-color="#4D4D4D" stop-opacity="0"/>
<stop offset="0.5137" stop-color="#4D4D4D"/>
<stop offset="0.9303" stop-color="#4D4D4D" stop-opacity="0.1434"/>
<stop offset="1" stop-color="#4D4D4D" stop-opacity="0"/>
</linearGradient>
<linearGradient id="paint9_linear" x1="-79.6958" y1="568.373" x2="458.909" y2="605.111" gradientUnits="userSpaceOnUse">
<stop stop-color="#4D4D4D" stop-opacity="0"/>
<stop offset="0.5137" stop-color="#4D4D4D"/>
<stop offset="0.9303" stop-color="#4D4D4D" stop-opacity="0.1434"/>
<stop offset="1" stop-color="#4D4D4D" stop-opacity="0"/>
</linearGradient>
<linearGradient id="paint10_linear" x1="-337.471" y1="-53.0562" x2="288.401" y2="-53.0562" gradientUnits="userSpaceOnUse">
<stop stop-color="#4D4D4D" stop-opacity="0"/>
<stop offset="0.5137" stop-color="#4D4D4D"/>
<stop offset="0.9303" stop-color="#4D4D4D" stop-opacity="0.1434"/>
<stop offset="1" stop-color="#4D4D4D" stop-opacity="0"/>
</linearGradient>
<linearGradient id="paint11_linear" x1="-337.471" y1="-19.9202" x2="332.409" y2="-19.9202" gradientUnits="userSpaceOnUse">
<stop stop-color="#4D4D4D" stop-opacity="0"/>
<stop offset="0.5137" stop-color="#4D4D4D"/>
<stop offset="0.9303" stop-color="#4D4D4D" stop-opacity="0.1434"/>
<stop offset="1" stop-color="#4D4D4D" stop-opacity="0"/>
</linearGradient>
<linearGradient id="paint12_linear" x1="-337.471" y1="13.1048" x2="377.236" y2="13.1048" gradientUnits="userSpaceOnUse">
<stop stop-color="#4D4D4D" stop-opacity="0"/>
<stop offset="0.5137" stop-color="#4D4D4D"/>
<stop offset="0.9303" stop-color="#4D4D4D" stop-opacity="0.1434"/>
<stop offset="1" stop-color="#4D4D4D" stop-opacity="0"/>
</linearGradient>
<linearGradient id="paint13_linear" x1="-337.471" y1="46.1306" x2="422.061" y2="46.1306" gradientUnits="userSpaceOnUse">
<stop stop-color="#4D4D4D" stop-opacity="0"/>
<stop offset="0.5137" stop-color="#4D4D4D"/>
<stop offset="0.9303" stop-color="#4D4D4D" stop-opacity="0.1434"/>
<stop offset="1" stop-color="#4D4D4D" stop-opacity="0"/>
</linearGradient>
<linearGradient id="paint14_linear" x1="-337.471" y1="79.1555" x2="466.889" y2="79.1555" gradientUnits="userSpaceOnUse">
<stop stop-color="#4D4D4D" stop-opacity="0"/>
<stop offset="0.5137" stop-color="#4D4D4D"/>
<stop offset="0.9303" stop-color="#4D4D4D" stop-opacity="0.1434"/>
<stop offset="1" stop-color="#4D4D4D" stop-opacity="0"/>
</linearGradient>
<linearGradient id="paint15_linear" x1="-337.471" y1="112.181" x2="511.714" y2="112.181" gradientUnits="userSpaceOnUse">
<stop stop-color="#4D4D4D" stop-opacity="0"/>
<stop offset="0.5137" stop-color="#4D4D4D"/>
<stop offset="0.9303" stop-color="#4D4D4D" stop-opacity="0.1434"/>
<stop offset="1" stop-color="#4D4D4D" stop-opacity="0"/>
</linearGradient>
<linearGradient id="paint16_linear" x1="-337.471" y1="145.207" x2="556.541" y2="145.207" gradientUnits="userSpaceOnUse">
<stop stop-color="#4D4D4D" stop-opacity="0"/>
<stop offset="0.5137" stop-color="#4D4D4D"/>
<stop offset="0.9303" stop-color="#4D4D4D" stop-opacity="0.1434"/>
<stop offset="1" stop-color="#4D4D4D" stop-opacity="0"/>
</linearGradient>
<linearGradient id="paint17_linear" x1="-313.146" y1="201.145" x2="587.056" y2="262.548" gradientUnits="userSpaceOnUse">
<stop stop-color="#4D4D4D" stop-opacity="0"/>
<stop offset="0.5137" stop-color="#4D4D4D"/>
<stop offset="0.9303" stop-color="#4D4D4D" stop-opacity="0.1434"/>
<stop offset="1" stop-color="#4D4D4D" stop-opacity="0"/>
</linearGradient>
<linearGradient id="paint18_linear" x1="-251.38" y1="323.909" x2="435.18" y2="323.909" gradientUnits="userSpaceOnUse">
<stop stop-color="#4D4D4D" stop-opacity="0"/>
<stop offset="0.5137" stop-color="#4D4D4D"/>
<stop offset="0.9303" stop-color="#4D4D4D" stop-opacity="0.1434"/>
<stop offset="1" stop-color="#4D4D4D" stop-opacity="0"/>
</linearGradient>
<linearGradient id="paint19_linear" x1="-279.543" y1="344.556" x2="385.605" y2="344.556" gradientUnits="userSpaceOnUse">
<stop stop-color="#4D4D4D" stop-opacity="0"/>
<stop offset="0.5137" stop-color="#4D4D4D"/>
<stop offset="0.9303" stop-color="#4D4D4D" stop-opacity="0.1434"/>
<stop offset="1" stop-color="#4D4D4D" stop-opacity="0"/>
</linearGradient>
<linearGradient id="paint20_linear" x1="-307.705" y1="364.883" x2="335.268" y2="364.883" gradientUnits="userSpaceOnUse">
<stop stop-color="#4D4D4D" stop-opacity="0"/>
<stop offset="0.5137" stop-color="#4D4D4D"/>
<stop offset="0.9303" stop-color="#4D4D4D" stop-opacity="0.1434"/>
<stop offset="1" stop-color="#4D4D4D" stop-opacity="0"/>
</linearGradient>
<linearGradient id="paint21_linear" x1="-335.867" y1="385.238" x2="284.722" y2="385.238" gradientUnits="userSpaceOnUse">
<stop stop-color="#4D4D4D" stop-opacity="0"/>
<stop offset="0.5137" stop-color="#4D4D4D"/>
<stop offset="0.9303" stop-color="#4D4D4D" stop-opacity="0.1434"/>
<stop offset="1" stop-color="#4D4D4D" stop-opacity="0"/>
</linearGradient>
<linearGradient id="paint22_linear" x1="-336.024" y1="413.926" x2="233.944" y2="413.926" gradientUnits="userSpaceOnUse">
<stop stop-color="#4D4D4D" stop-opacity="0"/>
<stop offset="0.5137" stop-color="#4D4D4D"/>
<stop offset="0.9303" stop-color="#4D4D4D" stop-opacity="0.1434"/>
<stop offset="1" stop-color="#4D4D4D" stop-opacity="0"/>
</linearGradient>
<linearGradient id="paint23_linear" x1="-315.646" y1="448.911" x2="183.631" y2="448.911" gradientUnits="userSpaceOnUse">
<stop stop-color="#4D4D4D" stop-opacity="0"/>
<stop offset="0.5137" stop-color="#4D4D4D"/>
<stop offset="0.9303" stop-color="#4D4D4D" stop-opacity="0.1434"/>
<stop offset="1" stop-color="#4D4D4D" stop-opacity="0"/>
</linearGradient>
<linearGradient id="paint24_linear" x1="-366.188" y1="462.553" x2="133.087" y2="462.553" gradientUnits="userSpaceOnUse">
<stop stop-color="#4D4D4D" stop-opacity="0"/>
<stop offset="0.5137" stop-color="#4D4D4D"/>
<stop offset="0.9303" stop-color="#4D4D4D" stop-opacity="0.1434"/>
<stop offset="1" stop-color="#4D4D4D" stop-opacity="0"/>
</linearGradient>
<linearGradient id="paint25_linear" x1="-416.73" y1="476.192" x2="82.5352" y2="476.192" gradientUnits="userSpaceOnUse">
<stop stop-color="#4D4D4D" stop-opacity="0"/>
<stop offset="0.5137" stop-color="#4D4D4D"/>
<stop offset="0.9303" stop-color="#4D4D4D" stop-opacity="0.1434"/>
<stop offset="1" stop-color="#4D4D4D" stop-opacity="0"/>
</linearGradient>
<linearGradient id="paint26_linear" x1="-467.273" y1="489.836" x2="31.9956" y2="489.836" gradientUnits="userSpaceOnUse">
<stop stop-color="#4D4D4D" stop-opacity="0"/>
<stop offset="0.5137" stop-color="#4D4D4D"/>
<stop offset="0.9303" stop-color="#4D4D4D" stop-opacity="0.1434"/>
<stop offset="1" stop-color="#4D4D4D" stop-opacity="0"/>
</linearGradient>
<linearGradient id="paint27_linear" x1="-28.458" y1="73.8626" x2="553.576" y2="73.8626" gradientUnits="userSpaceOnUse">
<stop stop-color="#4D4D4D" stop-opacity="0"/>
<stop offset="0.5137" stop-color="#4D4D4D"/>
<stop offset="0.9303" stop-color="#4D4D4D" stop-opacity="0.1434"/>
<stop offset="1" stop-color="#4D4D4D" stop-opacity="0"/>
</linearGradient>
<linearGradient id="paint28_linear" x1="-78.9795" y1="102.746" x2="553.79" y2="102.746" gradientUnits="userSpaceOnUse">
<stop stop-color="#4D4D4D" stop-opacity="0"/>
<stop offset="0.5137" stop-color="#4D4D4D"/>
<stop offset="0.9303" stop-color="#4D4D4D" stop-opacity="0.1434"/>
<stop offset="1" stop-color="#4D4D4D" stop-opacity="0"/>
</linearGradient>
<linearGradient id="paint29_linear" x1="-129.5" y1="130.482" x2="550.181" y2="130.482" gradientUnits="userSpaceOnUse">
<stop stop-color="#4D4D4D" stop-opacity="0"/>
<stop offset="0.5137" stop-color="#4D4D4D"/>
<stop offset="0.9303" stop-color="#4D4D4D" stop-opacity="0.1434"/>
<stop offset="1" stop-color="#4D4D4D" stop-opacity="0"/>
</linearGradient>
<linearGradient id="paint30_linear" x1="-180.021" y1="143.902" x2="499.022" y2="143.902" gradientUnits="userSpaceOnUse">
<stop stop-color="#4D4D4D" stop-opacity="0"/>
<stop offset="0.5137" stop-color="#4D4D4D"/>
<stop offset="0.9303" stop-color="#4D4D4D" stop-opacity="0.1434"/>
<stop offset="1" stop-color="#4D4D4D" stop-opacity="0"/>
</linearGradient>
<linearGradient id="paint31_linear" x1="-230.541" y1="157.663" x2="448.986" y2="157.663" gradientUnits="userSpaceOnUse">
<stop stop-color="#4D4D4D" stop-opacity="0"/>
<stop offset="0.5137" stop-color="#4D4D4D"/>
<stop offset="0.9303" stop-color="#4D4D4D" stop-opacity="0.1434"/>
<stop offset="1" stop-color="#4D4D4D" stop-opacity="0"/>
</linearGradient>
<linearGradient id="paint32_linear" x1="173.502" y1="-36.0314" x2="570.386" y2="-36.0314" gradientUnits="userSpaceOnUse">
<stop stop-color="#4D4D4D" stop-opacity="0"/>
<stop offset="0.5137" stop-color="#4D4D4D"/>
<stop offset="0.9303" stop-color="#4D4D4D" stop-opacity="0.1434"/>
<stop offset="1" stop-color="#4D4D4D" stop-opacity="0"/>
</linearGradient>
<linearGradient id="paint33_linear" x1="122.685" y1="-12.2962" x2="553.79" y2="-12.2962" gradientUnits="userSpaceOnUse">
<stop stop-color="#4D4D4D" stop-opacity="0"/>
<stop offset="0.5137" stop-color="#4D4D4D"/>
<stop offset="0.9303" stop-color="#4D4D4D" stop-opacity="0.1434"/>
<stop offset="1" stop-color="#4D4D4D" stop-opacity="0"/>
</linearGradient>
<linearGradient id="paint34_linear" x1="72.165" y1="16.5243" x2="553.79" y2="16.5243" gradientUnits="userSpaceOnUse">
<stop stop-color="#4D4D4D" stop-opacity="0"/>
<stop offset="0.5137" stop-color="#4D4D4D"/>
<stop offset="0.9303" stop-color="#4D4D4D" stop-opacity="0.1434"/>
<stop offset="1" stop-color="#4D4D4D" stop-opacity="0"/>
</linearGradient>
<linearGradient id="paint35_linear" x1="21.2663" y1="45.2318" x2="553.79" y2="45.2318" gradientUnits="userSpaceOnUse">
<stop stop-color="#4D4D4D" stop-opacity="0"/>
<stop offset="0.5137" stop-color="#4D4D4D"/>
<stop offset="0.9303" stop-color="#4D4D4D" stop-opacity="0.1434"/>
<stop offset="1" stop-color="#4D4D4D" stop-opacity="0"/>
</linearGradient>
<linearGradient id="paint36_linear" x1="-281.262" y1="192.213" x2="468.224" y2="192.213" gradientUnits="userSpaceOnUse">
<stop stop-color="#4D4D4D" stop-opacity="0"/>
<stop offset="0.5137" stop-color="#4D4D4D"/>
<stop offset="0.9303" stop-color="#4D4D4D" stop-opacity="0.1434"/>
<stop offset="1" stop-color="#4D4D4D" stop-opacity="0"/>
</linearGradient>
<linearGradient id="paint37_linear" x1="-331.581" y1="221.094" x2="468.224" y2="221.094" gradientUnits="userSpaceOnUse">
<stop stop-color="#4D4D4D" stop-opacity="0"/>
<stop offset="0.5137" stop-color="#4D4D4D"/>
<stop offset="0.9303" stop-color="#4D4D4D" stop-opacity="0.1434"/>
<stop offset="1" stop-color="#4D4D4D" stop-opacity="0"/>
</linearGradient>
<linearGradient id="paint38_linear" x1="-222.807" y1="298.327" x2="468.224" y2="298.327" gradientUnits="userSpaceOnUse">
<stop stop-color="#4D4D4D" stop-opacity="0"/>
<stop offset="0.5137" stop-color="#4D4D4D"/>
<stop offset="0.9303" stop-color="#4D4D4D" stop-opacity="0.1434"/>
<stop offset="1" stop-color="#4D4D4D" stop-opacity="0"/>
</linearGradient>
</defs>
</svg>
