<?xml version="1.0" ?><!DOCTYPE svg  PUBLIC '-//W3C//DTD SVG 1.1//EN'  'http://www.w3.org/Graphics/SVG/1.1/DTD/svg11.dtd'><svg enable-background="new 0 0 70 70" height="70px" id="Icons" version="1.1" viewBox="0 0 70 70" width="70px" xml:space="preserve" xmlns="http://www.w3.org/2000/svg" xmlns:xlink="http://www.w3.org/1999/xlink"><g><path d="M35,43c4.418,0,8-3.582,8-8V21c0-4.418-3.582-8-8-8s-8,3.582-8,8v14C27,39.418,30.582,43,35,43z M31,21   c0-2.206,1.794-4,4-4s4,1.794,4,4v14c0,2.206-1.794,4-4,4s-4-1.794-4-4V21z"/><path d="M51,35h-4c0,6.617-5.383,12-12,12s-12-5.383-12-12h-4c0,8.144,6.12,14.872,14,15.861V54h-8v4h20v-4h-8v-3.139   C44.88,49.872,51,43.144,51,35z"/></g></svg>